<?xml version="1.0" standalone="no"?>
<!DOCTYPE svg PUBLIC "-//W3C//DTD SVG 1.1//EN" "http://www.w3.org/Graphics/SVG/1.1/DTD/svg11.dtd" >
<svg xmlns="http://www.w3.org/2000/svg">
<metadata>
Created by FontForge 20120731 at Fri Nov 25 10:40:46 2016
 By admin
</metadata>
<defs>
<font id="iconfont" horiz-adv-x="1024" >
  <font-face 
    font-family="iconfont"
    font-weight="500"
    font-stretch="normal"
    units-per-em="1024"
    panose-1="2 0 6 3 0 0 0 0 0 0"
    ascent="896"
    descent="-128"
    x-height="792"
    bbox="-11 -216 1365 896"
    underline-thickness="0"
    underline-position="0"
    unicode-range="U+0078-E69E"
  />
<missing-glyph 
 />
    <glyph glyph-name=".notdef" 
 />
    <glyph glyph-name=".notdef" 
 />
    <glyph glyph-name=".null" horiz-adv-x="0" 
 />
    <glyph glyph-name="nonmarkingreturn" horiz-adv-x="341" 
 />
    <glyph glyph-name="x" unicode="x" horiz-adv-x="1001" 
d="M281 543q-27 -1 -53 -1h-83q-18 0 -36.5 -6t-32.5 -18.5t-23 -32t-9 -45.5v-76h912v41q0 16 -0.5 30t-0.5 18q0 13 -5 29t-17 29.5t-31.5 22.5t-49.5 9h-133v-97h-438v97zM955 310v-52q0 -23 0.5 -52t0.5 -58t-10.5 -47.5t-26 -30t-33 -16t-31.5 -4.5q-14 -1 -29.5 -0.5
t-29.5 0.5h-32l-45 128h-439l-44 -128h-29h-34q-20 0 -45 1q-25 0 -41 9.5t-25.5 23t-13.5 29.5t-4 30v167h911zM163 247q-12 0 -21 -8.5t-9 -21.5t9 -21.5t21 -8.5q13 0 22 8.5t9 21.5t-9 21.5t-22 8.5zM316 123q-8 -26 -14 -48q-5 -19 -10.5 -37t-7.5 -25t-3 -15t1 -14.5
t9.5 -10.5t21.5 -4h37h67h81h80h64h36q23 0 34 12t2 38q-5 13 -9.5 30.5t-9.5 34.5q-5 19 -11 39h-368zM336 498v228q0 11 2.5 23t10 21.5t20.5 15.5t34 6h188q31 0 51.5 -14.5t20.5 -52.5v-227h-327z" />
    <glyph glyph-name="tryiconew" unicode="&#xe609;" 
d="M871 468h-60l-234 179q8 14 8 30q0 24 -17.5 41.5t-42 17.5t-42 -17.5t-17.5 -41.5q0 -7 1 -15l-253 -194h-60q-37 0 -63.5 -26.5t-26.5 -63.5v-418q0 -37 26.5 -63.5t63.5 -26.5h717q37 0 63.5 26.5t26.5 63.5v418q0 37 -26.5 63.5t-63.5 26.5zM477 641q18 -24 48 -24
q21 0 38 13l218 -162h-537zM347 71h-64l-82 121v-121h-64v220h64l82 -122v122h64v-220zM578 71h-186v220h182v-47h-114v-35h106v-45h-106v-43h118v-50zM850 71h-66l-39 139l-38 -139h-67l-49 220h65l23 -123l34 123h64l34 -123l24 123h64z" />
    <glyph glyph-name="new" unicode="&#xe608;" 
d="M1012 300l-134 94l67 146l-165 17l-18 159l-152 -64l-98 128l-98 -128l-152 64l-18 -159l-165 -17l67 -146l-134 -94l134 -94l-67 -146l165 -17l18 -159l152 64l98 -128l98 128l152 -64l18 159l165 17l-67 146zM372 180h-46l-41 77q-21 38 -34 71l-1 -1q2 -40 2 -87v-60
h-40v200h51l40 -73q18 -33 32 -69h1q-4 34 -4 84v58h40v-200zM572 180h-160v200h155v-37h-98v-42h92v-36h-92v-48h103v-37zM772 180h-39l-13 86q-5 35 -8 62v0q-5 -38 -9 -62l-15 -86h-39l-37 200h38l12 -82q4 -27 9 -70h1q2 25 10 70l13 82h38l12 -84q5 -32 9 -67v0
q1 13 9 69l13 82h36z" />
    <glyph glyph-name="tiaomu" unicode="&#xe600;" 
d="M320 286.5q0 -79.5 56 -136t136 -56.5t136 56.5t56 136t-56 135.5t-136 56t-136 -56t-56 -135.5z" />
    <glyph glyph-name="mobanshichang" unicode="&#xe614;" 
d="M543 256q0 22 -8.5 42t-23.5 34.5t-35 23t-43 8.5h-294q-22 0 -42 -8.5t-35 -23t-24 -34.5q-9 -19 -9 -42v-288q0 -22 9 -42t24 -34.5t35 -23.5t42 -9h294q23 0 43 9t35 23.5t23.5 34.5t8.5 42v288v0zM922 51q30 0 51.5 21t21.5 50v168q0 31 -21.5 52t-51.5 21h-174
q-30 0 -52.5 -21t-22.5 -52v-168q0 -29 22.5 -50t52.5 -21h174v0zM922 428q30 0 51.5 21.5t21.5 50.5v169q0 29 -21.5 50t-51.5 21h-174q-30 0 -52.5 -21t-22.5 -50v-169q0 -29 22.5 -50.5t52.5 -21.5h174v0zM470 428q30 0 52 21.5t22 50.5v169q0 29 -22 50t-52 21h-174
q-30 0 -51.5 -21t-21.5 -50v-169q0 -29 21.5 -50.5t51.5 -21.5h174v0zM470 428z" />
    <glyph glyph-name="xiazai" unicode="&#xe605;" horiz-adv-x="1025" 
d="M547 -102v465h-34v-465l-123 123l-24 -25l164 -164l164 164l-24 25zM838 500v3.5v4.5q0 110 -77.5 187.5t-186.5 77.5q-78 0 -142 -41.5t-97 -109.5q-29 14 -61 14q-50 0 -88 -32t-47 -81q-61 -21 -99.5 -74t-38.5 -120q0 -85 60 -144.5t145 -60.5h205v35h-205
q-71 0 -121 50t-50 120q0 55 32 99.5t84 62.5l19 6l3 20q6 37 34.5 61t66.5 24q24 0 46 -11l31 -15l15 31q28 60 85 95.5t123 35.5q95 0 162.5 -67.5t67.5 -162.5v-2v-5l-1 -35h35q63 0 108 -45.5t45 -108.5t-45 -108t-108 -45h-8h-181v-35h189v0q78 1 132.5 56t54.5 132.5
t-55 132.5t-132 55z" />
    <glyph glyph-name="close" unicode="&#xe639;" 
d="M960 690l-45 46l-402 -403l-403 403l-45 -46l402 -402l-402 -403l45 -45l403 403l402 -403l45 45l-402 403z" />
    <glyph glyph-name="remen" unicode="&#xe615;" 
d="M918 -156v905h-795v-888l352 365h66l377 -382v0zM107 -216h-27v1008h880v-1006h-45l-392 398h-30l-386 -400v0zM395 293q-1 -1 -3.5 -2t-6 -1.5t-8.5 -0.5q-6 0 -9.5 0.5t-5.5 1.5t-3 2t-1 3v126h-129v-126q0 -2 -1 -3t-3 -2t-5.5 -1.5t-9 -0.5t-9 0.5t-6 1.5t-3.5 2
t-1 3v272q0 2 1 3.5t3.5 2t6 1t8.5 0.5q6 0 9.5 -0.5t5.5 -1t3 -2t1 -3.5v-113h129v113q0 2 1 3.5t3 2l6 1.5h9q5 0 8.5 -0.5t6 -1t3 -2t0.5 -3.5v-272v-3v0zM678 373q-8 -27 -24.5 -46.5t-40.5 -30t-57 -10.5q-32 0 -55 9.5t-38.5 28t-23 45t-7.5 62.5q0 33 8.5 60.5
t24.5 46.5t40.5 29.5t56.5 10.5q31 0 54.5 -9.5t39 -27.5t23 -44.5t7.5 -61t-8 -62.5v0zM642 478q-5 20 -15 36q-10 15 -26.5 23.5t-41 8.5t-41 -9t-27 -24.5t-15 -36t-4.5 -43.5q0 -25 4.5 -46t14 -36t26 -23.5t41.5 -8.5t42 9t27 25t14.5 36.5t4.5 43.5q0 24 -4 45v0z
M900 551q0 -3 -1 -5t-2.5 -3t-3.5 -1h-80v-246q0 -2 -0.5 -3t-3 -2t-6 -1.5t-8.5 -0.5q-6 0 -9.5 0.5t-6 1.5t-3 2t-0.5 3v246h-80q-2 0 -3.5 1t-2 2.5t-1.5 5t-1 7.5t1 7t1.5 5t2 3t3.5 1h197q2 0 3.5 -1t2.5 -3t1.5 -5t0.5 -7.5t-1 -6.5v0z" />
    <glyph glyph-name="spinner" unicode="&#xe641;" 
d="M384 684q0 53 37.5 90.5t90.5 37.5t90.5 -37.5t37.5 -90.5t-37.5 -90.5t-90.5 -37.5t-90.5 37.5t-37.5 90.5zM656 572q0 53 37.5 90.5t90.5 37.5t90.5 -37.5t37.5 -90.5t-37.5 -90.5t-90.5 -37.5t-90.5 37.5t-37.5 90.5zM832 300q0 27 18.5 45.5t45.5 18.5t45.5 -18.5
t18.5 -45.5t-18.5 -45.5t-45.5 -18.5t-45.5 18.5t-18.5 45.5zM720 28.5q0 26.5 18.5 45t45 18.5t45.5 -18.5t19 -45t-19 -45.5t-45.5 -19t-45 19t-18.5 45.5zM448 -84v0q0 27 18.5 45.5t45.5 18.5t45.5 -18.5t18.5 -45.5v0q0 -27 -18.5 -45.5t-45.5 -18.5t-45.5 18.5
t-18.5 45.5zM176 28v0q0 27 19 45.5t45.5 18.5t45 -18.5t18.5 -45.5v0q0 -26 -18.5 -45t-45 -19t-45.5 19t-19 45zM144 572v0q0 39 28.5 67.5t68 28.5t67.5 -28.5t28 -67.5v0q0 -40 -28 -68t-67.5 -28t-68 28t-28.5 68zM56 300q0 30 21 51t51 21t51 -21t21 -51t-21 -51
t-51 -21t-51 21t-21 51z" />
    <glyph glyph-name="zhankai" unicode="&#xe60d;" 
d="M399 504q-10 -10 0 -19l162 -162l-162 -161q-9 -10 0 -20l30 -29q9 -10 19 0l195 195q9 9 9 15q0 7 -9 15l-195 196q-10 9 -20 0l-29 -30v0zM41 311q0 -98 38 -186.5t102 -153t153 -102.5t186.5 -38t186.5 38t153 102.5t102 153t38 186t-38 186.5t-102 153.5t-153 102.5
t-186.5 38t-186.5 -38t-153 -102.5t-102 -153.5t-38 -186v0zM950 311q0 -117 -57.5 -215.5t-156.5 -156t-215.5 -57.5t-215.5 57.5t-156.5 156t-57.5 215t57.5 215.5t156.5 156.5t215.5 57.5t215.5 -57.5t156.5 -156.5t57.5 -215v0zM950 311z" />
    <glyph glyph-name="bangongxitong" unicode="&#xe616;" 
d="M894 698h-765q-26 0 -44.5 -19t-18.5 -45v-510q0 -26 18.5 -45t44.5 -19h319v-95h-159q-14 0 -23 -9.5t-9 -22.5v-32h510v32q0 13 -9.5 22.5t-22.5 9.5h-160v95h319q27 0 45.5 19t18.5 45v510q0 26 -18.5 45t-45.5 19v0zM480 124q0 13 9.5 22.5t22.5 9.5t22.5 -9.5
t9.5 -22.5t-9.5 -22.5t-22.5 -9.5t-22.5 9.5t-9.5 22.5zM129 188v446h765v-446h-765v0z" />
    <glyph glyph-name="xuanzemoban48" unicode="&#xe617;" 
d="M320 300h-213q-27 0 -45.5 -18.5t-18.5 -45.5v-213q0 -27 18.5 -45.5t45.5 -18.5h213q27 0 45.5 18.5t18.5 45.5v213q0 27 -18.5 45.5t-45.5 18.5zM256 257v-256h-85v256h85zM85 23v213q0 9 6.5 15t15.5 6h42v-256h-42q-9 0 -15.5 6.5t-6.5 15.5zM341 23q0 -9 -6 -15.5
t-15 -6.5h-43v256h43q9 0 15 -6t6 -15v-213zM576 471h-341q-36 0 -61 -25t-25 -61v-42h43v42q0 18 12.5 30.5t30.5 12.5h42v-96h22v96h213v-427h-85l-22 -42h171q35 0 60 25t25 60v341q0 36 -25 61t-60 25zM619 44q0 -18 -12.5 -30.5t-30.5 -12.5h-43v427h43
q18 0 30.5 -12.5t12.5 -30.5v-341zM853 -41q36 0 61 25t25 60v512q0 35 -25 60t-61 25h-512q-35 0 -60 -25t-25 -60v-43h43v43q0 18 12.5 30.5t29.5 12.5h86v-86h21v86h299v-598h-43l-21 -42h170zM896 44q0 -18 -12.5 -30.5t-30.5 -12.5h-85v598h85q18 0 30.5 -12.5
t12.5 -30.5v-512z" />
    <glyph glyph-name="sousuo" unicode="&#xe627;" 
d="M912 -51q-8 0 -13 6l-248 248q-1 0 -1 1l-7 8q-5 5 -4.5 13t5.5 13q49 45 75 105q28 62 28 131q0 134 -94.5 229t-228.5 95t-229 -95t-95 -229t95 -228.5t229 -94.5q39 0 77 9q73 20 121 15q8 -1 13 -7t4 -13.5t-7 -12.5t-14 -4q-42 4 -107 -14h-1q-42 -10 -86 -10
q-74 0 -141 28q-64 27 -114 77t-78 115q-28 67 -28 140.5t28 140.5q28 64 78 114t114 78q67 28 140.5 28t140.5 -28q65 -28 115 -78t77 -114q28 -67 28 -141q0 -76 -30 -146q-27 -59 -71 -105l242 -242q6 -5 6 -13t-5.5 -13.5t-13.5 -5.5zM166 474h-3q-7 1 -12 7t-4 14
q7 65 39 121q4 7 11.5 9t14 -1.5t8.5 -11t-1 -14.5q-28 -50 -35 -107q-1 -7 -6 -12t-12 -5z" />
    <glyph glyph-name="shijian" unicode="&#xe63e;" 
d="M512 -212q-139 0 -257 68.5t-186.5 186.5t-68.5 257t68.5 257t186.5 186.5t257 68.5t257 -68.5t186.5 -186.5t68.5 -257t-68.5 -257t-186.5 -186.5t-257 -68.5zM512 755q-93 0 -177 -36t-145 -97t-97 -145t-36 -177t36 -177t97 -145t145 -97t177 -36t177 36t145 97
t97 145t36 177t-36 177t-97 145t-145 97t-177 36zM740 243h-285v398h57v-341h228v-57z" />
    <glyph glyph-name="xinjian" unicode="&#xe618;" 
d="M256 364v192h192v64h-192v192h-64v-192h-192v-64h192v-192h64zM576 620v-64h384v-704h-704v384h-64v-448h832v832h-448z" />
    <glyph glyph-name="tuichu" unicode="&#xe619;" 
d="M823 602q-10 10 -24.5 10t-24.5 -10t-10 -24t10 -25q53 -53 81 -122t28 -139.5t-28 -139.5t-81 -123q-71 -71 -166.5 -96t-191 0t-166.5 96q-53 54 -81 123t-28 139.5t28 139.5t81 122q10 11 10 25t-10 24t-24.5 10t-24.5 -10q-62 -62 -95.5 -142t-33.5 -168.5
t33.5 -168.5t95.5 -142q63 -63 144 -96t167 -33t167 33t144 96q62 62 95.5 142t33.5 168.5t-33.5 168.5t-95.5 142zM512 136q14 0 24 10t10 25v542q0 15 -10 25t-24 10t-24 -10t-10 -25v-542q0 -15 10 -25t24 -10z" />
    <glyph glyph-name="liebiao" unicode="&#xe61a;" 
d="M922 263h-566q-16 0 -27 11t-11 26.5t11 26.5t27 11h566q15 0 26 -11t11 -26.5t-11 -26.5t-26 -11v0zM922 563h-566q-16 0 -27 11t-11 26.5t11 26.5t27 11h566q15 0 26 -11t11 -26.5t-11 -26.5t-26 -11v0zM137 -75q-32 0 -54 22t-22 53t22 53t53.5 22t53.5 -22t22 -53
t-22 -53t-53 -22v0zM137 225q-32 0 -54 22t-22 53.5t22 53.5t53.5 22t53.5 -22t22 -53.5t-22 -53.5t-53 -22v0zM137 526q-32 0 -54 22t-22 53t22 53t53.5 22t53.5 -22t22 -53t-22 -53t-53 -22v0zM356 38h566q15 0 26 -11t11 -26.5t-11 -26.5t-26 -11h-566q-16 0 -27 11
t-11 26.5t11 26.5t27 11v0zM356 38z" />
    <glyph glyph-name="gerenzhongxin01" unicode="&#xe61b;" 
d="M519 -177q-69 0 -123.5 2t-112.5 7t-100 15t-76.5 25t-52 38.5t-17.5 53.5q0 73 100 143.5t241 98.5q21 4 27 27q7 24 -13 44l-2 2q-45 46 -71.5 113.5t-26.5 139.5q0 111 64 183t162.5 72t163 -72t64.5 -183q0 -73 -27.5 -142t-74.5 -114q-19 -20 -12 -43q7 -22 28 -28
q141 -27 241 -97.5t100 -143.5q0 -34 -23 -59.5t-62.5 -41t-102.5 -25t-132 -12.5t-162 -3zM435 312q39 -43 23 -95q-7 -25 -25.5 -42.5t-42.5 -23.5q-129 -25 -213.5 -83.5t-84.5 -103.5q0 -86 427 -86t427 86q0 46 -84.5 104.5t-213.5 82.5q-25 6 -43.5 23.5t-25.5 42.5
q-16 54 26 98q39 37 62 96.5t23 120.5q0 88 -47.5 144t-123.5 56t-123.5 -56t-47.5 -144q0 -61 23 -120t61 -96q2 -2 3 -4z" />
    <glyph glyph-name="zuixiaohua" unicode="&#xe63a;" 
d="M909 272h-791q-23 0 -39 16.5t-16 39t16 38.5t39 16h791q22 0 38.5 -16t16.5 -38.5t-16.5 -39t-38.5 -16.5z" />
    <glyph glyph-name="tishi" unicode="&#xe601;" 
d="M208 634q-10 9 -23 9t-22.5 -9.5t-9.5 -22.5t9 -23l46 -45q9 -9 22.5 -9t22.5 9t9 22.5t-9 22.5l-45 46v0zM816 634l-45 -46q-9 -9 -9 -22.5t9 -22.5t22.5 -9t22.5 9l46 45q9 10 9 23t-9.5 22.5t-22.5 9.5t-23 -9v0zM127 380h-64q-13 0 -22.5 -9.5t-9.5 -22.5t9.5 -22.5
t22.5 -9.5h64q14 0 23.5 9.5t9.5 22.5t-9.5 22.5t-23.5 9.5v0zM961 380h-64q-14 0 -23.5 -9.5t-9.5 -22.5t9.5 -22.5t23.5 -9.5h64q13 0 22.5 9.5t9.5 22.5t-9.5 22.5t-22.5 9.5v0zM480 749v-64q0 -14 9.5 -23.5t22.5 -9.5t22.5 9.5t9.5 23.5v64q0 13 -9.5 22.5t-22.5 9.5
t-22.5 -9.5t-9.5 -22.5v0zM288 300q0 93 65.5 158.5t158.5 65.5t158.5 -65.5t65.5 -158.5t-65.5 -158.5t-158.5 -65.5t-158.5 65.5t-65.5 158.5v0zM224 300q0 -119 84.5 -203.5t203.5 -84.5t203.5 84.5t84.5 203.5t-84.5 203.5t-203.5 84.5t-203.5 -84.5t-84.5 -203.5v0z
M448 -149q0 -13 9.5 -22.5t22.5 -9.5h64q13 0 22.5 9.5t9.5 23t-9.5 22.5t-22.5 9h-64q-13 0 -22.5 -9t-9.5 -23v0zM384 -52q0 -14 9.5 -23.5t22.5 -9.5h192q13 0 22.5 9.5t9.5 23t-9.5 23t-22.5 9.5h-192q-13 0 -22.5 -9.5t-9.5 -22.5v0zM384 -52z" />
    <glyph glyph-name="wenjian" unicode="&#xe638;" 
d="M292 489h243v-32h-243v32v0zM292 343h243v-32h-243v32v0zM292 197h440v-32h-440v32v0zM292 51h440v-32h-440v32v0zM905 528q0 1 -1 2q-1 4 -3 7l-265 265q-3 3 -8 4h-2l-0.5 0.5t-1.5 0.5h-390q-48 0 -81.5 -34t-33.5 -81v-784q0 -47 33.5 -80.5t81.5 -33.5h556
q48 0 81.5 33.5t33.5 80.5v618v1v1v0zM839 542h-121q-33 0 -56.5 23t-23.5 56v122l201 -201v0zM781 -158h-538q-33 0 -56.5 23.5t-23.5 56.5v756q0 33 23.5 56.5t56.5 23.5h362v-145q0 -45 32.5 -77.5t78.5 -32.5h145v-581q0 -33 -23.5 -56.5t-56.5 -23.5v0z" />
    <glyph glyph-name="yanzhengma" unicode="&#xe61c;" 
d="M792 747h-252v-227q66 -16 112 -66.5t56 -118.5q4 -17 4 -35q0 -79 -48.5 -140t-123.5 -80v-227h252q69 0 118 49t49 118v560q0 69 -49 118t-118 49zM621 300q0 57 -40 97t-97 40v310h-252q-69 0 -118 -49t-49 -118v-560q0 -69 49 -118t118 -49h252v310q57 0 97 40t40 97
z" />
    <glyph glyph-name="mima" unicode="&#xe61d;" 
d="M186 346v0v-465q0 -19 14 -32.5t33 -13.5h558q19 0 33 13.5t14 32.5v465q0 20 -14 33.5t-33 13.5h-558q-19 0 -33 -13.5t-14 -33.5v0zM140 346v0q0 39 27 66.5t66 27.5h558q39 0 66 -27.5t27 -66.5v-465q0 -38 -27 -65.5t-66 -27.5h-558q-39 0 -66 27.5t-27 65.5v465z
M372 300h280v-47h-280v47zM279 416v116q0 97 68.5 165t164.5 68q97 0 165 -68t68 -165q0 -9 6.5 -16t16.5 -7t16.5 7t6.5 16q0 116 -81.5 198t-197.5 82t-197.5 -82t-81.5 -198v-116q0 -9 6.5 -16t16.5 -7t16.5 7t6.5 16v0z" />
    <glyph glyph-name="shangchuan" unicode="&#xe61e;" horiz-adv-x="1236" 
d="M981 -169h-220q-69 0 -117 48.5t-48 116.5v307q0 9 7 16t16.5 7t16.5 -7t7 -16v-306q0 -48 34.5 -82.5t83.5 -34.5h220q83 0 143 54t65 133q5 89 -55 151q-61 63 -147 63h-5q-10 0 -18 8q-7 9 -5 20q15 72 2 137q-20 112 -105 190.5t-199 91.5q-74 8 -143.5 -14.5
t-125.5 -72.5q-55 -49 -85.5 -116t-30.5 -141q0 -9 -5.5 -15.5t-14.5 -7.5q-91 -13 -150 -84.5t-55 -164.5q3 -95 77 -163.5t174 -68.5h107q10 0 17 -7t7 -16.5t-7.5 -15.5t-17.5 -6h-107q-118 0 -205 81t-92 195q-4 105 60 188t165 105q5 78 39 148.5t93 122.5
q63 57 142 82t164 16q129 -13 225.5 -102.5t118.5 -216.5q12 -68 3 -128q96 -7 159 -77q73 -79 66 -186q-6 -97 -79.5 -164.5t-174.5 -67.5zM802 129q-10 0 -17 7l-167 169l-168 -168q-7 -7 -16 -7t-16 7t-7 16.5t7 16.5l184 184q7 7 17 7t16 -7l184 -184q7 -7 7 -16.5
t-7 -16.5q-7 -8 -17 -8z" />
    <glyph glyph-name="step" unicode="&#xe61f;" 
d="M114 554l-34 23q-29 -47 -46 -91l36 -15q16 41 44 83zM976 382l40 6q-9 49 -27 98l-37 -15q19 -56 24 -89zM206 660l-25 30q-43 -37 -71 -73l32 -26q23 33 64 69zM56 426l-38 12q-12 -39 -18 -101l40 -3q6 53 16 92zM40 286l-40 -2q3 -61 13 -101l38 10q-11 53 -11 93z
M326 734l-16 36q-38 -15 -89 -49l22 -34q31 23 83 47zM877 657q-40 40 -79 65l-22 -33q36 -25 72 -61zM64 148l-38 -13q17 -48 41 -93l35 21q-23 38 -38 85zM462 769l-4 40q-55 -5 -100 -21l12 -38q46 14 92 19zM605 762l8 40q-51 10 -101 10h-2v-40h2q47 0 93 -10zM966 534
q-27 52 -56 84l-32 -25q29 -36 52 -79zM96 -1q23 -32 67 -77l27 29q-33 34 -62 72zM866 -12l30 -27q39 44 59 83l-35 19q-27 -45 -54 -75zM942 106l37 -16q22 47 32 96l-38 10q-14 -53 -31 -90zM1022 338l-40 -3q2 -11 2 -35q0 -19 -3 -58l40 -4q3 20 3 62q-2 13 -2 38z
M650 751q51 -16 86 -37l19 36q-54 28 -94 40zM758 -103l21 -34q43 27 82 63l-27 28q-35 -32 -76 -57zM629 -158l9 -38q44 10 96 35l-17 35q-38 -18 -88 -32zM203 -110q41 -31 87 -52l17 36q-40 18 -80 50zM338 -182q42 -14 99 -25l6 40q-45 7 -91 22zM488 -172l-2 -40h24
q43 0 77 6l-6 40q-41 -9 -93 -6zM709 300q0 -82 -57.5 -139.5t-139.5 -57.5t-139.5 57.5t-57.5 139.5t57.5 139.5t139.5 57.5t139.5 -57.5t57.5 -139.5z" />
    <glyph glyph-name="news" unicode="&#xe634;" 
d="M386 615q-60 -23 -109 -65.5t-81 -99.5h134q18 96 56 165zM502 450v188q-41 -2 -83 -13q-42 -71 -62 -175h145zM830 450q-64 116 -185 163q37 -68 56 -163h129zM611 625q-40 11 -82 13v-188h145q-20 103 -63 175zM644 -62q122 47 186 164h-130q-18 -96 -56 -164zM529 102
v-187q44 2 82 12q42 70 62 175h-144zM197 102q31 -57 80 -99.5t110 -65.5q-38 68 -57 165h-133zM420 -73q42 -11 82 -13v188h-145q21 -106 63 -175zM232 165v234h-29v-184l-123 184h-32v-234h30v184l123 -184h31zM454 371v28h-169v-234h174v27h-143v80h129v27h-129v72h138z
M543 165h32l49 178q3 11 7 27q1 -5 7 -27l50 -178h29l65 234h-32l-36 -151q-7 -28 -12 -50q-5 38 -18 82l-34 119h-37l-44 -158q-2 -6 -11 -43q-4 23 -10 47l-35 154h-32zM976 264.5q-10 14.5 -30 23.5q-14 6 -51.5 14.5t-46.5 17t-9 20.5q0 15 12.5 25t40.5 10q27 0 41 -11
t16 -33l30 2q-1 20 -11.5 36.5t-30.5 25t-46 8.5q-24 0 -43 -8t-29 -23.5t-10 -33.5q0 -16 8 -29t25 -22q13 -7 45 -14.5t42 -11.5q14 -5 20.5 -13.5t6.5 -19t-6.5 -20t-20 -14.5t-31.5 -5q-20 0 -36 7t-23.5 18t-9.5 29l-29 -3q0 -23 12.5 -42t34 -28t52.5 -9q26 0 46 9
t30.5 25.5t10.5 35.5t-10 33.5z" />
    <glyph glyph-name="jiantou" unicode="&#xe607;" 
d="M648 617v-461l311 230zM430 513h181v-256h-181v256zM244 513h122v-256h-122v256zM63 513h91v-256h-91v256z" />
    <glyph glyph-name="shujufenxi" unicode="&#xe611;" 
d="M452 764v0q-106 0 -195 -56.5t-141 -154t-52 -211.5q0 -111 54 -204t148.5 -146t207.5 -53q112 0 208 53.5t151.5 145.5t55.5 201v4h-434v421h-3v0v0zM862 313q-6 -96 -59.5 -175.5t-140 -125.5t-187.5 -46q-106 0 -193.5 49.5t-138 136t-50.5 189.5t44 191t120.5 142
t168.5 61v-392q0 -13 9 -21.5t21 -8.5h406v0v0v0zM533 830h-25v-409q0 -12 9 -21q9 -8 21 -8h421v25q0 114 -56 209t-154 149.5t-216 54.5v0v0v0zM536 420v386q163 -10 276 -119t124 -267h-400v0v0v0zM558 441z" />
    <glyph glyph-name="top1" unicode="&#xe647;" 
d="M510.5 779q80.5 0 154.5 -31q71 -30 126 -85t85 -126q31 -73 31 -153.5t-31 -154.5q-30 -71 -85 -125.5t-126 -84.5q-74 -32 -154.5 -32t-153.5 32q-71 30 -126 84.5t-85 125.5q-31 74 -31 154.5t31 153.5q30 71 85 126t126 85q73 31 153.5 31zM511 830q-91 0 -174 -35
t-142.5 -95t-95 -143t-35.5 -174t35.5 -173.5t95 -142.5t142.5 -95.5t174 -35.5t173.5 35.5t142.5 95.5t95.5 142.5t35.5 173.5t-35.5 174t-95.5 143t-142.5 95t-173.5 35v0zM582 701v-637h-105v511q-58 -53 -145 -78v104q42 11 92 37q47 29 79 63h79z" />
    <glyph glyph-name="jiahao" unicode="&#xe631;" 
d="M453 832h120v-387h387v-120h-387v-389h-120v389h-389v120h389v387z" />
    <glyph glyph-name="weibiaojixiaoqizi" unicode="&#xe63c;" 
d="M1024 505l-354 54l-158 337l-158 -337l-354 -54l256 -263l-60 -370l316 175l316 -175l-60 370z" />
    <glyph glyph-name="chajian" unicode="&#xe602;" horiz-adv-x="1029" 
d="M644 -128h-530q-47 0 -80 33q-34 33 -34 80v124l1 5q9 37 35 57q17 14 39 14q24 0 50 -16q4 -2 7 -4h4l6 -3q19 -10 37 -10q21 0 38 8q17 7 30 20t21 30q7 17 7 37t-7 37q-8 18 -21 31t-30 20q-17 8 -38 8q-19 0 -37 -8l-2 -1l-2 -1q-3 -1 -5 -2q-14 -7 -27 -13
q-23 -10 -44 -7q-30 3 -47 29q-13 20 -15 54v2v113q0 47 33.5 80.5t80.5 33.5h96q-9 29 -9 61q0 45 17 84q17 38 45 66t66 45q39 17 82.5 17t82.5 -17q38 -17 66 -45t45 -66q17 -39 17 -84q0 -32 -9 -61h31q47 0 80 -34q32 -33 32 -80v-70q31 11 65 11q42 0 80 -16
q38 -17 66.5 -45t44.5 -66t16 -80q0 -44 -16 -81t-44.5 -65.5t-66.5 -44.5q-38 -17 -80 -17q-34 0 -65 11v-61q0 -47 -33 -80t-79 -33zM86 92v-107q0 -11 8 -19t20 -8h530q11 0 19 8t8 19v227l70 -60q17 -14 38 -23q19 -8 42 -8q24 0 46 10q23 9 40 26t26 39q9 21 9 47
q0 24 -9 46q-10 23 -26.5 39.5t-39.5 26.5q-22 9 -46 9q-23 0 -42 -8q-21 -9 -38 -22l-70 -61v236q0 12 -9 20q-7 8 -18 8h-195l60 71q27 32 27 76q0 27 -10 49q-10 23 -26.5 40t-40.5 27q-22 10 -47.5 10t-47.5 -10q-23 -10 -40 -27t-27 -40q-10 -22 -10 -49q0 -22 7 -41
q8 -20 21 -36l56 -70h-257q-11 0 -19.5 -8.5t-8.5 -19.5v-105q4 2 9 4q6 3 14 6q34 15 70 15q38 0 71 -15q33 -14 58 -38.5t39 -57.5t14 -71t-14 -71q-14 -32 -39 -56.5t-58 -38.5t-71 -14q-36 0 -71 16q-10 3 -22 9z" />
    <glyph glyph-name="guanbi" unicode="&#xe644;" 
d="M512 896q-139 0 -257 -68.5t-186.5 -186.5t-68.5 -257t68.5 -257t186.5 -186.5t257 -68.5t257 68.5t186.5 186.5t68.5 257t-68.5 257t-186.5 186.5t-257 68.5zM731 214q10 -10 10 -24.5t-10 -24.5t-24.5 -10t-24.5 10l-170 170l-170 -170q-10 -10 -24.5 -10t-24.5 10
t-10 24.5t10 24.5l170 170l-170 170q-10 10 -10 24.5t10 24.5t24.5 10t24.5 -10l170 -170l170 170q10 10 24.5 10t24.5 -10t10 -24.5t-10 -24.5l-170 -170z" />
    <glyph glyph-name="sss05" unicode="&#xe60f;" 
d="M559 783q-45 20 -83 -11l-220 -205h-106q-28 0 -48 -20t-20 -48v-231q0 -28 20 -48t48 -20h106l220 -205q22 -17 50 -17q16 0 31 7q43 18 47 64v8v657q0 22 -12.5 40.5t-32.5 28.5v0zM554 84q0 -1 -1 -4q-2 -28 -28 -37q-12 -5 -44 20l-200 185q-3 3 -8 3h-3h-109
q-13 0 -21.5 9t-8.5 21v205q0 12 8.5 21t21.5 9h108v0h1q6 -1 11 3l199 185q37 31 51 25q4 -3 7.5 -5.5t6 -4.5t4 -5t2.5 -4.5t1.5 -5.5t0.5 -5.5v-6t1 -5.5v-1v-602zM895 581q-40 80 -110 138q-6 5 -13 4t-12 -6v-1q-10 -13 3 -23q69 -58 107 -138t38 -170t-37.5 -169.5
t-106.5 -137.5q-12 -10 -2 -23q4 -6 11.5 -7t13.5 4q69 58 109 138q46 92 46 195q0 104 -47 196v0zM686 573q-6 5 -13.5 3.5t-11.5 -7.5q-9 -13 3 -23q37 -30 58 -72.5t21 -89.5t-20.5 -89t-56.5 -72q-12 -10 -3 -23q4 -6 12 -7t13 3q42 35 65.5 84t23.5 104t-24 104.5
t-67 84.5v0z" />
    <glyph glyph-name="shangjiantou" unicode="&#xe628;" 
d="M545 256l331 329l86 1l-418 -404h-55l-427 404h84l344 -329z" />
    <glyph glyph-name="guanbi1" unicode="&#xe60b;" horiz-adv-x="1053" 
d="M526 384zM526 896q-104 0 -199 -40.5t-163.5 -109t-109 -163.5t-40.5 -199t40.5 -199t109 -163.5t163.5 -109t199 -40.5t199 40.5t163.5 109t109 163.5t40.5 199t-40.5 199t-109 163.5t-163.5 109t-199 40.5zM526 -108q-100 0 -191 39t-157 105t-105 157t-39 191t39 191
t105 157t157 105t191 39t191 -39t157 -105t105 -157t39 -191t-39 -191t-105 -157t-157 -105t-191 -39zM738 637l-212 -212l-211 212q-9 8 -21 8t-20.5 -8.5t-8.5 -20.5t8 -20l212 -212l-212 -212q-8 -8 -8 -20t8.5 -20.5t20.5 -8.5t21 8l211 212l212 -212q8 -8 20 -8
t20.5 8.5t8.5 20.5t-8 20l-212 212l212 212q8 8 8 20t-8.5 20.5t-20.5 8.5t-20 -8v0zM738 637z" />
    <glyph glyph-name="xiebaogao" unicode="&#xe620;" 
d="M909 35q0 -19 -13.5 -32t-32.5 -13h-702q-19 0 -32.5 13t-13.5 32v698q0 19 13.5 32t32.5 13h537v50h-560q-30 0 -51 -21t-21 -51v-744q0 -30 21 -51t51 -21h748q30 0 51 21t21 51v540h-49v-517zM327 328q-17 -31 -32 -62q-20 -40 -29 -65q-15 -42 -1 -56q7 -7 19 -7
q26 0 115 37q31 13 59 26t33 17l459 460q9 9 9 22t-10 23l-97 98q-10 9 -24 9q-13 0 -22 -9l-459 -459q-4 -4 -20 -34zM380 209q-53 -21 -80 -29q9 26 33 75q28 58 43 80v1l88 -89q-24 -13 -84 -38zM757 717l89 -88l-355 -355l-88 89zM829 788l88 -88l-45 -45l-89 88z" />
    <glyph glyph-name="dakai" unicode="&#xe62e;" 
d="M942 807q-2 4 -5 7t-6 5q-7 4 -15 4h-271q-13 0 -22 -10.5t-9 -25.5t9 -25.5t22 -10.5h183l-334 -334q-9 -10 -9 -23.5t9.5 -23t23 -9.5t23.5 10l334 334v-184q0 -13 10.5 -22t25.5 -9t25.5 9t10.5 22v271q0 8 -5 15zM911 386q-15 0 -25.5 -9t-10.5 -22v-334h-729v730
h333q13 0 22 10.5t9 25.5t-9 25.5t-22 10.5h-375q-13 0 -22 -10q-9 -9 -9 -21v-812q0 -11 9 -20q9 -11 22 -11h812q12 0 21 10q10 9 10 21v375q0 13 -10.5 22t-25.5 9z" />
    <glyph glyph-name="fbxctb" unicode="&#xe630;" 
d="M527 795q-6 1 -7 -4l108 -302q55 15 122 36l105 -102l5 -4l8 1l3 10l29 136l124 49zM761 533q39 11 42 11l34 -88zM854 442l-42 106q-17 15 -45 38.5t-87 73t-98 82.5t-38 33l79.5 -50t164 -102.5t93.5 -59.5zM527 370q-23 -11 -23 -36q0 -17 11.5 -28.5t27.5 -11.5
q9 0 17 3v0l146 67q23 10 23 36q0 16 -11.5 28t-28.5 12q-8 0 -16 -4v0zM527 516q-23 -11 -23 -37q0 -16 11.5 -27.5t27.5 -11.5q9 0 17 3v0l38 18l-26 75zM706 218v0q23 10 23 36q0 16 -11.5 28t-28.5 12q-8 0 -16 -4l-146 -66q-23 -11 -23 -36q0 -17 11.5 -28.5
t27.5 -11.5q9 0 17 4v0zM848 758q0 16 -11.5 27.5t-27.5 11.5q-8 0 -16 -3v0v0v0l-80 -33l135 -50v47zM143 364l145 -67q8 -3 17 -3q16 0 28 11.5t12 28.5q0 25 -24 36l-146 66q-7 4 -16 4q-16 0 -28 -12t-12 -28q0 -26 24 -36zM769 175l-305 -127v524l84 35l-27 75l-97 -40
l-369 152v0v0q-7 3 -15 3q-17 0 -28.5 -11.5t-11.5 -27.5v-610q0 -27 25 -37l383 -158q8 -4 16 -4t16 4l383 158q25 10 25 37v233l-79 77v-283zM384 48l-305 127v523l305 -126v-524zM143 218v0l145 -66q8 -4 17 -4q16 0 28 11.5t12 28.5q0 25 -24 36l-146 66q-7 4 -16 4
q-16 0 -28 -11.5t-12 -28.5q0 -26 24 -36zM143 509v0l145 -66q8 -3 17 -3q16 0 28 11.5t12 27.5q0 26 -24 37l-146 66q-7 3 -16 3q-16 0 -28 -11.5t-12 -27.5q0 -26 24 -37z" />
    <glyph glyph-name="homestep2" unicode="&#xe603;" horiz-adv-x="1097" 
d="M512 -128q-104 0 -199 40.5t-163.5 109t-109 163.5t-40.5 199t40.5 199t109 163.5t163.5 109t199 40.5q147 0 270 -76.5t188 -207.5q6 -11 -5 -16.5t-16 5.5q-63 125 -180 198t-257 73q-99 0 -189.5 -39t-155.5 -104t-104 -155.5t-39 -189.5t39 -189.5t104 -155.5
t155.5 -104t189.5 -39q143 0 264 78t180 209q5 11 16 6t6 -16q-62 -137 -189 -219t-277 -82zM424 505h-16v1q0 19 7 36.5t20 32t35 23t49 8.5q52 0 81 -28.5t29 -70.5q0 -17 -5 -33q-4 -16 -14 -31t-17 -24q-6 -9 -19 -23l-143 -164v0h207v-15h-228v15l152 174
q12 14 18.5 22.5t15.5 22.5q8 14 12 28.5t4 30.5q0 33 -24.5 57t-68.5 24q-45 0 -70 -25t-25 -60v-1v0zM964 300q-5 0 -9 4q-8 9 1 17l89 84l-89 89q-9 9 -0.5 17.5t17.5 0.5l98 -99q4 -3 3.5 -8t-3.5 -9l-98 -92q-4 -4 -9 -4z" />
    <glyph glyph-name="homestep1" unicode="&#xe604;" horiz-adv-x="1097" 
d="M512 -128q-104 0 -199 40.5t-163.5 109t-109 163.5t-40.5 199t40.5 199t109 163.5t163.5 109t199 40.5q147 0 270 -76.5t188 -207.5q6 -11 -5 -16.5t-16 5.5q-63 125 -180 198t-257 73q-99 0 -189.5 -39t-155.5 -104t-104 -155.5t-39 -189.5t39 -189.5t104 -155.5
t155.5 -104t189.5 -39q143 0 264 78t180 209q5 11 16 6t6 -16q-62 -137 -189 -219t-277 -82zM532 217h-16v362h-1l-95 -63v17l96 64h16v-380zM964 300q-5 0 -9 4q-8 9 1 17l89 84l-89 89q-9 9 -0.5 17.5t17.5 0.5l98 -99q4 -3 3.5 -8t-3.5 -9l-98 -92q-4 -4 -9 -4z" />
    <glyph glyph-name="jishi" unicode="&#xe642;" 
d="M512 895q-103 0 -196.5 -39.5t-162 -106t-109.5 -159t-44 -194.5q3 119 59 219t151 158t206 58q113 0 208.5 -60t151 -163t55.5 -224q0 -40 28.5 -68t68 -28t67.5 28t28 68q0 104 -40.5 198.5t-109 163t-163 109t-198.5 40.5zM512 -128q102 0 195.5 39.5t162 106t110 159
t43.5 195.5q-3 -119 -59 -219.5t-150.5 -158.5t-206.5 -58t-208 60t-151.5 163t-55.5 225q0 39 -28 67t-68 28t-68 -28t-28 -67q0 -105 40.5 -199.5t109 -163t163 -109t199.5 -40.5z" />
    <glyph glyph-name="iconfontditu1" unicode="&#xe632;" horiz-adv-x="1252" 
d="M1046 330q70 90 104 153t34 129q0 118 -86.5 201t-209.5 83t-209.5 -83t-86.5 -201q0 -60 30.5 -121t88.5 -138l-81 -26l-157 50q32 53 32 97q0 67 -47.5 114t-114.5 47t-114.5 -47t-47.5 -114q0 -47 40 -110v0l-221 -492l334 125l303 -125l285 125l329 -125l-205 458v0z
M888 750q60 0 102 -40.5t42 -97.5t-42 -97.5t-102 -40.5t-102 40.5t-42 97.5t42 97.5t102 40.5v0zM343 552q33 0 56 -23t23 -55t-23 -55t-55.5 -23t-55.5 23t-23 55t23 55t55 23v0zM916 72l-279 -121l-298 121l-222 -101l127 327l21 4q58 -77 78 -109q18 29 93 130l194 -62
l122 39q97 -125 136 -183q43 67 124 169l128 -319l-224 105v0z" />
    <glyph glyph-name="bangzhuzhongxin" unicode="&#xe621;" 
d="M509 870q-99 0 -189 -38.5t-155 -103.5t-103.5 -155t-38.5 -189t38.5 -189t103.5 -155t155 -103.5t189 -38.5t189 38.5t155 103.5t103.5 155t38.5 189t-38.5 189t-103.5 155t-155 103.5t-189 38.5zM832 61q-63 -63 -145 -98q-85 -36 -178 -36t-178 36q-82 35 -145 98
t-98 145q-36 85 -36 178t36 178q35 82 98 145t145 98q85 35 178 35t178 -35q82 -35 145 -98t98 -145q35 -85 35 -178t-35 -178q-35 -82 -98 -145v0zM485 166h48v-54h-48v54zM538 655q-161 8 -196 -142l43 -14q27 124 145 121q105 -8 116 -102q8 -62 -83 -121
q-73 -51 -73 -123v-27h38v24q-3 62 59 99q110 62 102 145q-11 132 -151 140v0z" />
    <glyph glyph-name="jian" unicode="&#xe629;" 
d="M512 886q-102 0 -195.5 -39.5t-161 -107t-107.5 -161t-40 -196t40 -195.5t107.5 -160.5t161 -107.5t195.5 -40t195.5 40t161 107.5t107.5 160.5t40 195.5t-40 196t-107.5 161t-161 107t-195.5 39.5zM837 57.5q-64 -63.5 -146 -98.5q-85 -36 -179 -36t-179 36
q-82 35 -146 98.5t-99 146.5q-36 85 -36 178.5t36 179.5q35 82 99 145.5t146 98.5q85 36 179 36t179 -36q82 -35 146 -98.5t99 -145.5q36 -86 36 -179.5t-36 -178.5q-35 -83 -99 -146.5zM747 405h-470q-9 0 -15.5 -6.5t-6.5 -16t6.5 -15.5t15.5 -6h470q9 0 15.5 6.5
t6.5 15.5t-6.5 15.5t-15.5 6.5z" />
    <glyph glyph-name="wayiwa" unicode="&#xe63f;" 
d="M751 468l146 145l-140 140l-145 -146l-149 150l-203 -203q-61 -61 -94 -151.5t-23 -183.5t68 -151.5t151.5 -68t184 23t151.5 93.5l202 203zM757 687l74 -74l-154 -155q-61 -60 -133 -107l-118 -77q-4 -2 -7 1t-1 7l77 118q47 72 107 133z" />
    <glyph glyph-name="zhankai-copy" unicode="&#xe622;" 
d="M314 759.5q-8 -7.5 -8 -19t8 -19.5l338 -337l-338 -338q-8 -8 -8 -19t8 -19t19.5 -8t19.5 8l353 353q2 1 4 3q8 8 8 20q0 11 -8 19q-2 2 -4 3l-353 354q-8 7 -19.5 7t-19.5 -7.5z" />
    <glyph glyph-name="jia" unicode="&#xe62a;" horiz-adv-x="1028" 
d="M542 613h-55l1 -202h-203v-54h203v-202h54v202h202v54h-202v202zM513.5 896q-104.5 0 -199.5 -40.5t-164 -109t-109.5 -163.5t-40.5 -199t40.5 -199t109.5 -163.5t164 -109t199.5 -40.5t200 40.5t164 109t109.5 163.5t41 199t-41 199t-109.5 163.5t-164 109t-200 40.5z
M513.5 -93q-97.5 0 -186 37.5t-152.5 101.5t-102 152.5t-38 185.5t38 185.5t102 152.5t152.5 101.5t186 37.5t186.5 -37.5t153 -101.5t102 -152.5t38 -185.5t-38 -185.5t-102 -152.5t-153 -101.5t-186.5 -37.5z" />
    <glyph glyph-name="xingxingxian" unicode="&#xe645;" 
d="M512 720l90 -181q22 -45 72 -53l198 -28l-144 -141q-37 -37 -27 -85l33 -198l-177 94q-20 11 -45 11t-45 -11l-177 -93l33 199q8 49 -27 84l-144 141l198 29q50 7 72 53zM512 824q-19 0 -29 -18l-117 -238q-7 -15 -24 -18l-264 -38q-19 -2 -25.5 -21.5t8.5 -32.5
l190 -186q12 -12 10 -29l-45 -262q-2 -15 7.5 -26t24.5 -11q5 0 14 3l236 123q4 4 14 4q5 0 14 -4l236 -123q4 -3 14 -3q15 0 24.5 11t7.5 26l-45 262q-3 17 10 29l190 186q14 14 8 33t-25 21l-263 38q-16 3 -24 18l-118 238q-10 18 -29 18v0z" />
    <glyph glyph-name="xingxingkuai" unicode="&#xe646;" 
d="M541 806l117 -238q7 -15 24 -18l264 -38q19 -2 25.5 -21.5t-8.5 -32.5l-190 -186q-12 -12 -10 -29l45 -262q4 -20 -12.5 -31.5t-33.5 -2.5l-236 123q-15 8 -30 0l-235 -123q-18 -9 -34 2.5t-13 31.5l45 262q3 17 -9 29l-189 186q-14 14 -8 33t25 21l263 38q16 3 24 18
l117 238q9 17 29.5 17t29.5 -17z" />
    <glyph glyph-name="yonghuming" unicode="&#xe623;" 
d="M858 158q-22 56 -61 103q-66 78 -164 112q16 11 30 24q62 60 62 146t-62.5 146.5t-150.5 60.5t-150.5 -60.5t-62.5 -146.5t63 -146q13 -13 29 -24q-98 -33 -163 -111q-40 -47 -62 -104q-22 -59 -22 -122q0 -8 6 -13.5t14 -5.5t13.5 5.5t5.5 13.5q0 112 73 200t186 112
q34 -12 70 -12t70 12q113 -24 186 -112t73 -200q0 -8 5.5 -13.5t13.5 -5.5t13.5 5.5t5.5 13.5q1 62 -21 122zM338 543q0 70 51 119.5t123 49.5t123 -49.5t51 -119.5t-51 -119.5t-123 -49.5t-123 49.5t-51 119.5z" />
    <glyph glyph-name="fengexian" unicode="&#xe624;" 
d="M0 416h320v-32h-320v32zM352 416h320v-32h-320v32zM704 416h320v-32h-320v32zM0 768h1024v-32h-1024v32zM0 32h1024v-32h-1024v32z" />
    <glyph glyph-name="new1" unicode="&#xe60a;" horiz-adv-x="1366" 
d="M0 896v-1024l683 171l682 -171v1024h-1365zM358 256h-72l-98 247l-51 -247h-69l77 367h68l98 -243l52 243h68zM772 563h-196l-17 -85h188l-13 -60h-188l-21 -98h213l-17 -64h-286l77 367h273zM1126 256h-76l-9 269l-132 -269h-77l-13 367h73l4 -256l124 256h81l8 -252
l120 252h72z" />
    <glyph glyph-name="baifangjiluxiaojiaoyintubiao" unicode="&#xe63d;" 
d="M886 330q-37 0 -63.5 31.5t-26.5 75.5t26.5 75t63.5 31t63.5 -31t26.5 -75t-26.5 -75.5t-63.5 -31.5zM709 541q-45 0 -76.5 37.5t-31.5 91t31.5 91t76.5 37.5t77 -37.5t32 -91t-32 -91t-77 -37.5zM455 616q-46 0 -79 38.5t-33 92t33 92t79 38.5t79 -38.5t33 -92
t-32.5 -92t-79.5 -38.5zM778 210q0 -131 -79 -223t-191 -92q-99 0 -175 75q28 50 28 107q0 66 -34 116.5t-85 62.5q13 115 88.5 192t176.5 77q112 0 191.5 -92t79.5 -223zM181 457q-61 0 -104 51.5t-43 124.5t43 124.5t104 51.5t104 -51.5t43 -124.5t-43 -124.5t-104 -51.5z
" />
    <glyph glyph-name="zhankai1" unicode="&#xe625;" 
d="M493 174l-357 383q-7 8 -7 18.5t7.5 18t18 7.5t18.5 -7l339 -365l339 365q8 7 18.5 7t18 -7.5t7.5 -18t-7 -18.5l-357 -383q-7 -8 -19 -7q-12 -1 -19 7z" />
    <glyph glyph-name="wenjianjia" unicode="&#xe637;" 
d="M974.5 574.5q-13.5 17.5 -35.5 17.5h-92v40q0 20 -14 33.5t-33 13.5h-433q-4 0 -6 3l-59 58q-13 14 -33 14h-182q-19 0 -33 -14t-14 -33v-646q0 -19 14 -33t33 -14v0h6h715q15 0 27 9t16 24l131 489q6 21 -7.5 38.5zM87 715h182q3 0 6 -2l58 -59q14 -14 34 -14h433
q8 0 8 -8v-40h-584q-15 0 -27.5 -9t-16.5 -24l-101 -378v526q0 8 8 8zM945 546l-131 -489q-1 -4 -6 -4h-715q-3 0 -5 2.5t-1 4.5l131 489q1 4 6 4h715q3 0 4.5 -2t1.5 -5z" />
    <glyph glyph-name="quanbuwenjian" unicode="&#xe62b;" 
d="M489.5 641q15.5 0 26.5 10.5t11 26.5v74q0 15 -11 26t-26.5 11t-26 -11t-10.5 -26v-74q0 -16 10.5 -26.5t26 -10.5zM675.5 641q15.5 0 26 10.5t10.5 26.5v74q0 15 -10.5 26t-26 11t-26.5 -11t-11 -26v-74q0 -16 11 -26.5t26.5 -10.5zM304.5 641q15.5 0 26 10.5t10.5 26.5
v74q0 15 -10.5 26t-26 11t-26.5 -11t-11 -26v-74q0 -16 11 -26.5t26.5 -10.5zM811 715h-62v-37q0 -31 -21.5 -53t-52 -22t-52.5 22t-22 53v37h-37v-37q0 -31 -21.5 -53t-52.5 -22t-52.5 22t-21.5 53v37h-37v-37q0 -31 -22 -53t-52.5 -22t-52.5 22t-22 53v37h-62
q-15 0 -26 -11t-11 -26v-643q0 -16 11 -26.5t26 -10.5h643q16 0 26.5 10.5t10.5 26.5v643q0 15 -10.5 26t-26.5 11zM719 121h-458q-13 0 -22 9t-9 22t9 22t22 9h458q12 0 21 -9t9 -22t-9 -22t-21 -9zM712 270h-445q-15 0 -26 10.5t-11 26t11 26.5t26 11h445q16 0 26.5 -11
t10.5 -26.5t-10.5 -26t-26.5 -10.5zM712 430h-445q-15 0 -26 11t-11 26.5t11 26.5t26 11h445q16 0 26.5 -11t10.5 -26.5t-10.5 -26.5t-26.5 -11z" />
    <glyph glyph-name="hongbao" unicode="&#xe640;" 
d="M867 571q-12 0 -20.5 -8.5t-8.5 -20.5v-507q0 -16 -12 -28t-29 -12h-570q-17 0 -29 12t-12 28v507q0 12 -8.5 20.5t-20.5 8.5t-21 -8.5t-9 -20.5v-507q0 -41 29.5 -70t70.5 -29h570q41 0 70.5 29t29.5 70v507q0 12 -9 20.5t-21 8.5v0zM797 832h-570q-41 0 -70.5 -29
t-29.5 -70v-98q0 -11 7 -19t18 -10l355 -65h5.5h5.5l354 65q11 2 18 10t7 19v98q0 41 -29.5 70t-70.5 29v0zM838 659l-326 -59l-326 59v74q0 16 12 28t29 12h570q17 0 29 -12t12 -28v-74v0z" />
    <glyph glyph-name="shouyeshouye" unicode="&#xe626;" 
d="M949 377l-440 411l-441 -410q-6 -6 -6.5 -15t5.5 -15.5t15 -6.5t15 6l412 383l411 -384q6 -6 14 -6q10 0 16 7q6 6 6 15t-7 15v0zM949 377zM815 368q-9 0 -15.5 -6t-6.5 -15v-327h-170v227h-228v-227h-171v327q0 9 -6 15t-15 6t-15.5 -6t-6.5 -15v-370h257v228h142v-228
h256v370q0 9 -6 15t-15 6v0zM815 368zM665 674h128v-114q0 -9 6.5 -15t15.5 -6t15 6t6 15v157h-171q-9 0 -15 -6.5t-6 -15.5t6 -15t15 -6v0zM665 674z" />
    <glyph glyph-name="loading" unicode="&#xe643;" horiz-adv-x="1062" 
d="M1052 369q-2 109 -45 206q-43 98 -120 172q-76 74 -175 112q-97 38 -202 36t-200 -44q-94 -41 -166 -116q-71 -74 -108 -169t-35 -197q2 -101 43 -193q40 -91 112 -160t164 -105q91 -36 190 -33q98 2 186 41q89 39 155 109q67 69 101 158q21 53 28 110h4q28 0 48 20
t20 48v5v0v0zM944 189q-37 -85 -105 -149q-67 -64 -153 -98q-85 -33 -176 -30q-92 2 -174 38q-82 37 -144 102q-62 64 -94 147q-31 82 -29 170t37 168q35 78 98 138q62 59 142 90q79 30 164 28q84 -2 160 -36t133 -94t87 -136q29 -76 27 -158v0v-5q0 -26 17 -45.5t43 -22.5
q-10 -56 -33 -107v0z" />
    <glyph glyph-name="icontop1" unicode="&#xe648;" 
d="M218 462v-80h-62v-321h-105v321h-62v80h229zM480 227q0 -60 -3 -85.5t-18 -46t-40.5 -32t-59.5 -11.5q-32 0 -57.5 10.5t-41.5 32t-19 46t-3 86.5v69q0 61 3 86t18 46t40.5 32t59.5 11q33 0 58.5 -10.5t41 -31.5t18.5 -46t3 -87v-69zM376 359q0 28 -3.5 36t-12.5 8
q-8 0 -12.5 -6.5t-4.5 -37.5v-187q0 -35 3 -43.5t13 -8.5q11 0 14 9.5t3 45.5v184zM519 462h105q43 0 66 -6.5t34.5 -19t15.5 -30.5t4 -56v-35q0 -38 -8 -56t-29 -27t-56 -9h-28v-162h-104v401zM623 394v-103h8q15 0 20.5 7t5.5 30v33q0 20 -6.5 26.5t-27.5 6.5zM773 143
v-82h-75v82h75zM955 462v-401h-100v215q0 47 -2.5 56.5t-12.5 14t-45 4.5h-10v47q73 16 111 64h59z" />
    <glyph glyph-name="zuidahua" unicode="&#xe63b;" 
d="M128 768v-128v-64v-448h768v448v64v128h-768zM832 192h-640v384h640v-384z" />
    <glyph glyph-name="xinxing" unicode="&#xe64a;" 
d="M786 799q-24 2 -45 2q-53 0 -95.5 -16.5t-69.5 -40t-62 -65.5q-35 42 -62 65.5t-69.5 40t-95.5 16.5q-21 0 -45 -2q-38 -4 -74.5 -23t-68 -51t-53.5 -82.5t-27 -112.5v-56q10 -122 117 -240t378 -308q271 190 378 308t117 240v56q-5 62 -27 112.5t-53.5 82.5t-68 51
t-74.5 23zM300 705q-14 -1 -25 -2h-4v0q-3 -1 -5 -1q-7 -1 -11 -2q-12 -3 -21 -6q-3 -2 -6 -2q0 -1 -1 -1.5l-1 -0.5q-5 -2 -8 -3q-9 -5 -17 -10q-4 -3 -7 -5l-2 -1v0l-3 -3q-13 -11 -23 -24q-2 -1 -3 -2q-1 -3 -3 -4q-3 -5 -6 -9l-10 -18l-4 -10q-1 -2 -2 -3l-1 -2
q-3 -8 -5 -16q-5 -13 -7 -24q-1 -4 -1 -8l-1 -1q1 2 1 3q-2 -16 -16 -16q-6 0 -11 5t-4 11q4 38 24 77q24 46 64 74q49 34 119 35q10 0 13.5 -8t0 -15.5t-13.5 -7.5z" />
    <glyph glyph-name="xinxingxiangao" unicode="&#xe64b;" 
d="M513 -89l-4 3q-272 191 -379 308q-109 121 -119 245v1v57v0q10 121 82 199q64 68 147 76q24 2 46 2q79 0 136 -34q41 -25 91 -84q50 59 91 84q57 34 136 34q22 0 46 -2q83 -8 147 -76q72 -78 82 -199v-1v-57v0q-10 -124 -119 -245q-107 -117 -379 -308zM25 468
q10 -119 116 -236q105 -116 372 -303q267 187 372 303q106 117 116 236v56q-5 60 -26 109.5t-52 80.5t-66.5 49.5t-72.5 21.5q-23 3 -44 3q-40 0 -73 -8.5t-59.5 -26.5t-45.5 -36.5t-43 -47.5l-6 -7l-5 7q-25 29 -44 47.5t-45.5 36.5t-59 26.5t-73.5 8.5q-21 0 -44 -3
q-37 -3 -72.5 -21.5t-66.5 -49.5t-52 -80.5t-26 -109.5v-56zM120 544q2 13 8 33q14 38 37.5 67t55.5 46q38 19 88 21q4 0 6 3.5t0 7.5t-6 4q-68 -2 -116 -35q-38 -27 -62 -71q-21 -38 -26 -72q-1 -8 5 -10q9 -2 10 6v0z" />
    <glyph glyph-name="liushihuiyuan" unicode="&#xe613;" 
d="M691 333q56 27 90 80.5t34 117.5q0 91 -64.5 155.5t-156 64.5t-156 -64.5t-64.5 -155.5q0 -64 34 -117.5t90 -80.5v0v0q-96 -29 -160.5 -108.5t-72.5 -182.5q-1 -4 -1 -7q0 -8 5.5 -13t13 -5t13 5t5.5 13h1q7 116 91.5 196t201.5 80zM778 531v0q0 -76 -53.5 -130
t-129.5 -54t-130 54t-54 130t54 130t130 54t129.5 -54t53.5 -130v0zM100 42v0q-1 -4 -1 -7q0 -8 5 -13t13 -5t13 5t5 13h1q6 98 70 172.5t159 95.5q20 17 47 32l-0.5 1t-0.5 2q0 5 2 10q-71 6 -119 58.5t-48 124.5t48.5 124.5t119.5 58.5q20 19 45 35q-16 2 -30 2
q-91 0 -155.5 -64.5t-64.5 -155.5q0 -64 34 -117.5t90 -80.5q-97 -29 -161 -108.5t-72 -182.5v0zM891.5 153q-7.5 0 -12.5 -5t-5 -12v-28l-88 87v0l-34 35q-6 5 -13 5t-12 -5l-82 -81l-81 81q-5 5 -12.5 5t-12.5 -5t-5 -12.5t5 -12.5l94 -93q5 -6 12.5 -6t12.5 6l81 81
l23 -23l1 -1l11 -11l75 -75h-28q-7 0 -12 -5t-5 -12.5t5 -12.5t12 -5h70q8 0 13 5t5 12v71q0 7 -5 12t-12.5 5z" />
    <glyph glyph-name="hebi" unicode="&#xe60e;" 
d="M625 180q10 10 0 19l-162 162l162 161q9 10 0 20l-30 29q-9 10 -19 0l-195 -195q-9 -9 -9 -15q0 -7 9 -15l195 -196q10 -9 20 0zM983 373q0 98 -38 186.5t-102 153t-153 102.5t-186.5 38t-186.5 -38t-153 -102.5t-102 -153t-38 -186t38 -186.5t102 -153.5t153 -102.5
t186.5 -38t186.5 38t153 102.5t102 153.5t38 186v0zM74 373q0 117 57.5 215.5t156.5 156t215.5 57.5t215.5 -57.5t156.5 -156t57.5 -215t-57.5 -215.5t-156.5 -156.5t-215.5 -57.5t-215.5 57.5t-156.5 156.5t-57.5 215v0zM74 373z" />
    <glyph glyph-name="jian1" unicode="&#xe633;" 
d="M128 448h767v-127h-767v127z" />
    <glyph glyph-name="new2" unicode="&#xe60c;" 
d="M336 572q-29 9 -54 -16q-18 -18 -16.5 -43t21.5 -46l84 84q-18 16 -35 21zM0 896v-1024l1024 1024h-1024zM296 290l-101 101q-14 14 -28 19q-21 8 -39 -10q-10 -9 -14 -17q-7 -13 -5 -31q1 -15 7.5 -25t22.5 -26l84 -84l-26 -26l-160 160l25 25l22 -23q-3 25 3 43t21 33
q33 33 68 21q20 -7 44 -31l102 -103zM444 432q-7 -12 -19 -24q-29 -28 -70 -26t-80 41q-39 38 -43 82t28 76q16 16 39.5 23.5t43.5 2.5q20 -4 39 -18q13 -9 37 -33l-111 -111q25 -24 50 -28.5t46 17.5q20 20 18 45q-1 15 -9 29l25 25q8 -10 13 -26q5 -17 5 -31
q1 -23 -12 -44zM578 573l-27 -27l-204 115l28 28l156 -96l-96 156l29 29l155 -95l-94 156l26 26l115 -204l-27 -27l-154 92z" />
    <glyph glyph-name="shiyong" unicode="&#xe69e;" 
d="M512 896q-139 0 -257 -68.5t-186.5 -186.5t-68.5 -257t68.5 -257t186.5 -186.5t257 -68.5t257 68.5t186.5 186.5t68.5 257t-68.5 257t-186.5 186.5t-257 68.5zM512 -60q-90 0 -172.5 35.5t-141.5 94.5t-94.5 141.5t-35.5 172.5t35.5 172.5t94.5 141.5t141.5 94.5
t172.5 35.5q94 0 180 -39l-316 -315l217 -217l319 318q44 -91 44 -191q0 -90 -35.5 -172.5t-94.5 -141.5t-141.5 -94.5t-172.5 -35.5zM292 172l278 61l-218 217z" />
    <glyph glyph-name="weibiaoti531" unicode="&#xe606;" 
d="M785 602h-113v-56h113v56zM865 208v418q-1 32 -7 41q-10 6 -41 8h-241v64h-48q-5 -1 -370 -65v-562q42 -7 116.5 -20t136 -23.5t115.5 -20.5h50v72h125h125q33 2 36 18q3 10 3.5 21.5t0 27t-0.5 21.5zM395 268q-4 10 -13.5 31t-16 37.5t-10.5 32.5q-6 -19 -20.5 -52.5
t-18.5 -43.5q-18 0 -53 2q3 5 26 51t36 70q-10 24 -30 66.5t-27 56.5q36 2 53 3q31 -79 35 -94q5 15 11.5 31t15.5 37t13 31q29 2 55 3q-40 -81 -65 -131l34.5 -69t32.5 -66q-32 2 -58 4zM841 144h-265v49h64v56h-64v32h64v56h-64v32h64v57h-64v32h64v56h-64v32h64v56h-64
v48h265v-506zM785 514h-113v-56h113v56zM785 426h-113v-57h113v57zM785 337h-113v-56h113v56zM785 249h-113v-56h113v56z" />
    <glyph glyph-name="52d72adc69438zhuanhuan-copy" unicode="&#xe62c;" 
d="M952 593l-2 2v41l-41 42v-1l-182 184q-1 1 -3 2l-1 1h-566q-34 0 -58.5 -24.5t-24.5 -58.5v-794q0 -34 24.5 -58.5t58.5 -24.5h710q34 0 58.5 24.5t24.5 58.5v606h2zM721 808l171 -174h-130q-17 0 -29 12.5t-12 29.5v132zM909 -13q0 -17 -12.5 -29t-29.5 -12h-710
q-17 0 -29.5 12t-12.5 29v794q0 17 12.5 29t29.5 12h522v-146q0 -34 24.5 -58.5t58.5 -24.5h147v-606zM251 614h209q4 0 7 3t3 7v21q0 4 -3 7t-7 3h-209q-4 0 -7 -3t-3 -7v-21q0 -4 3 -7t7 -3zM251 509h209q4 0 7 3t3 8v21q0 4 -3 7t-7 3h-209q-4 0 -7 -3t-3 -7v-21
q0 -5 3 -8t7 -3zM251 405h209q4 0 7 3t3 7v21q0 4 -3 7.5t-7 3.5h-209q-4 0 -7 -3.5t-3 -7.5v-21q0 -4 3 -7t7 -3zM241 269v-21q0 -4 3 -7t7 -3h522q4 0 7 3t3 7v21q0 5 -3 8t-7 3h-522q-4 0 -7 -3t-3 -8zM773 154h-522q-4 0 -7 -3t-3 -7v-21q0 -4 3 -7t7 -3h522q4 0 7 3
t3 7v21q0 4 -3 7t-7 3z" />
    <glyph glyph-name="fensanjiegou" unicode="&#xe62f;" 
d="M785 217v0l-176 88q12 57 -20 104l33 26q27 -17 60.5 -13.5t57.5 27.5q29 28 29 68t-28.5 68t-68.5 28t-68 -28q-24 -24 -27.5 -58.5t15.5 -62.5l-30 -25q-32 25 -72 29l-25 174q21 9 38 26q39 39 39 94.5t-39 94.5t-94.5 39t-94.5 -39t-39 -94.5t39 -94.5q34 -33 80 -38
l39 -170q-28 -10 -49 -31q-10 -10 -17 -21l-98 49q1 23 -15 39q-15 15 -36.5 15t-36.5 -15t-15 -36.5t15 -36.5q14 -14 34 -15t35 12l100 -50q-11 -39 2 -78l-133 -93q-39 26 -87 22t-82 -38q-39 -40 -39 -95t39 -94t94 -39t95 39q26 27 35 63.5t-2 70.5l112 112
q30 -30 72 -37l23 -143q-17 -7 -29 -20q-26 -25 -26 -61.5t26 -62t62 -25.5t61.5 25.5t25.5 62t-25 61.5q-23 22 -55 25l-22 138q45 6 76 37q2 3 6 8l168 -111q-7 -64 38 -109q40 -39 95 -39t94 39t39 94.5t-39 94.5t-94 39t-95 -39v0zM785 217z" />
    <glyph glyph-name="iconzhankai" unicode="&#xe635;" 
d="M616 864v-64h-448v-832h448v-64h-512v960h512zM804 352h-444v64h444l-173 156q-10 9 -11 22.5t8 23t22.5 10.5t22.5 -8l236 -212q11 -10 11 -24t-11 -24l-236 -212q-9 -8 -21 -8q-14 0 -24 10q-9 10 -8 23.5t11 21.5z" />
    <glyph glyph-name="zoushi" unicode="&#xe612;" horiz-adv-x="1076" 
d="M1014 98h-956q-13 0 -22.5 -9.5t-9.5 -22.5t9.5 -22.5t22.5 -9.5h956q13 0 22.5 9.5t9.5 22.5t-9.5 22.5t-22.5 9.5zM1047 707q0 1 -2 7q-1 1 -3 4l-2 2l-1 1.5t-1 2.5h-0.5h-0.5q-1 1 -6 5l-1.5 1t-2.5 1.5t-2.5 1t-2.5 0.5l-3 1t-4 1h-0.5h-0.5h-191q-13 0 -22.5 -9
t-9.5 -22t9.5 -22.5t22.5 -9.5h109l-299 -275l-265 265q-10 9 -23 9t-23 -10l-286 -286q-10 -10 -10 -23t9.5 -22.5t22.5 -9.5t23 9l264 265l264 -265q10 -9 23 -9q14 0 23 8l331 302v-119q0 -13 9.5 -22.5t22.5 -9.5t22.5 9.5t9.5 22.5v191q0 1 -1.5 2.5t-1.5 2.5z" />
    <glyph glyph-name="tongzhi" unicode="&#xe610;" 
d="M660 4h-296q-13 0 -22 -9.5t-9 -22.5t9 -22t22 -9h296q13 0 22 9t9 22t-9 22.5t-22 9.5zM870 161l-58 102q-8 19 -25 25t-30 -3t-10 -27l2 -4l71 -126q1 -2 2 -3h-621l73 129q4 6 4 14v183q0 66 45.5 126.5t113.5 85.5q27 9 50 12q24 3 49 0q22 -3 53 -13
q67 -25 111.5 -85.5t44.5 -125.5v-98q1 -14 14.5 -20t28 -0.5t17.5 20.5v98q0 83 -55 158q-44 61 -114 96q-1 51 -37 86.5t-87 35.5t-87 -35t-37 -86q-70 -34 -115 -95q-55 -76 -55 -160v-175l-71 -124q-16 -29 0.5 -58t50.5 -29h100h70h62h164h62h170q24 0 41 17t17 41
q0 22 -14 38zM512 771q22 0 39.5 -12.5t24.5 -32.5q-64 13 -128 0q7 20 24.5 32.5t39.5 12.5z" />
    <glyph glyph-name="kehushitipng" unicode="&#xe62d;" horiz-adv-x="1239" 
d="M997 -128h-770v2q1 3 -2 5q-28 16 -28 48v44v44q0 23 2 47q5 43 17 85q26 90 85.5 161t143.5 111q0 1 1 1.5t2 0.5l-1.5 1.5l-0.5 0.5q-23 24 -23 25q-73 92 -59 211q6 50 29 94q47 88 135 124q38 16 78 18h4h22h4q29 -2 58 -11q87 -28 139 -106q40 -60 46 -134
q3 -43 -6 -82q-18 -81 -77 -139q-1 0 -2 -2l1.5 -1t2.5 -1q64 -31 115 -82q53 -53 85 -120q45 -91 46 -193q1 -12 1 -97q0 -4 -1 -9q-2 -16 -14 -28.5t-28 -16.5q-1 0 -2.5 -0.5t-2.5 -0.5zM1 139l1 10q4 60 26 114q44 111 142 172q1 0 2 0.5t1 1.5l-1 2q-36 48 -44 104
q-16 114 61 197q44 48 108 63q18 4 38 5l36 2h4l-2 -4q-17 -25 -18 -28q-14 -20 -19 -45q0 -2 -2 -12q-3 -1 -8 -1.5t-7 -0.5q-47 -7 -76 -37q-25 -25 -34 -62q-7 -25 -5 -54q1 -24 5 -40q7 -31 33 -48q3 -2 8 -5t7 -5q26 -16 27 -42q1 -14 -7 -25.5t-19 -14.5
q-24 -7 -32 -10q-47 -18 -82 -60q-33 -40 -50 -95q-11 -36 -13 -71q-1 -12 -1 -24v-35v-4h37.5h31.5l-6 -42l-6 -42h-5h-38.5h-38.5q-20 0 -34.5 12.5t-18.5 31.5q0 1 -1 5v87zM1239 49q-1 -4 -1 -5q-4 -17 -16.5 -28t-28.5 -13h-8h-79h-5v5q1 17 -2 33q-1 7 -6 22
q-1 3 -3 10t-3 9q1 1 15 1h14h15h15h15v3v48q-4 81 -38 145q-21 40 -53 67q-33 28 -75 38q-9 3 -14 5q-14 6 -18 21q-3 13 -1 25q3 14 15 22q4 3 6 3q5 2 12 10q20 24 29 42q10 20 12 43q1 4 1 9.5v7.5q1 5 -1 20q-5 30 -13 52q-11 28 -31 45q-12 10 -32 19q-18 7 -44 14
q-4 2 -5 6t-3.5 11t-2.5 8q-2 7 -6 13q-7 9 -33 46q-1 1 -1.5 2t-1.5 2h2h2q4 0 12 -0.5t15 -1t13 -0.5q64 -3 114 -41q72 -53 90 -142q8 -36 3 -74q-8 -62 -44 -111l-1.5 -1.5t-0.5 -1v-0.5q0 -1 1 -1.5l1 -0.5q102 -63 146 -179q16 -41 21 -86q0 -4 0.5 -11.5t0.5 -8.5
l1 -3v-98z" />
    <glyph glyph-name="iconshouqi" unicode="&#xe636;" 
d="M408 864v-64h448v-832h-448v-64h512v960h-512zM220 352h444v64h-444l173 156q10 9 11 22.5t-8 23t-22.5 10.5t-22.5 -8l-236 -212q-11 -10 -11 -24t11 -24l236 -212q9 -8 21 -8q14 0 24 10q9 10 8 23.5t-11 22.5z" />
    <glyph glyph-name="fxq-top1" unicode="&#xe649;" 
d="M512 50q-8 0 -13 -5t-5 -13v-142q0 -8 5 -13t13 -5t13 5t5 13v142q0 8 -5.5 13t-12.5 5zM433 50q-8 0 -13 -5.5t-5 -12.5l-1 -62q1 -8 6 -13t13 -5v0v0q8 0 13 5t5 12v1v62q0 7 -5.5 12.5t-12.5 5.5zM850 387q-26 40 -68 63v6v3q1 133 -68 249q-68 116 -186 183v1h-1
q-7 4 -15 4t-15 -4q-119 -67 -187 -184q-28 -48 -48.5 -121t-20.5 -128h1v-1v-8q-42 -24 -68 -63q-33 -50 -32 -107q0 -64 38 -115q16 -21 44.5 -42t53.5 -29q3 -1 10 -2q12 0 21.5 8.5t9.5 20.5q1 24 11 46l2 7q2 -3 15 -20q20 -26 46 -51q9 -11 23 -11h192q12 1 21 9
q28 27 48 53q8 10 15 20l3 -6q9 -22 10 -47q0 -4 1 -8q4 -12 15.5 -17.5t23.5 -1.5q60 19 99 71q16 21 27 54t11 59v2v1q0 24 -9.5 55t-22.5 51zM592 487.5q-33 -32.5 -80 -33t-80 32t-33 78.5t33 78.5t80 32.5t80 -32.5t33 -78t-33 -78zM591.5 50q-7.5 0 -13 -5.5
t-5.5 -12.5v-62q0 -8 5.5 -13t12.5 -5q8 0 13 5t5 12v63q0 8 -5 13t-12.5 5z" />
  </font>
</defs>
</svg>
